HIERARCHY
ROOT Hips
{
  OFFSET 3.13124 94.3669 -3.18751
  CHANNELS  6 Xposition Yposition Zposition Zrotation Xrotation Yrotation
  JOINT LeftUpLeg
  {
    OFFSET 8.64259 1.95398 -2.38835
    CHANNELS 3 Zrotation Xrotation Yrotation
    JOINT LeftLeg
    {
      OFFSET 43.7702 0 0
      CHANNELS 3 Zrotation Xrotation Yrotation
      JOINT LeftFoot
      {
        OFFSET 40.6238 0 0
        CHANNELS 3 Zrotation Xrotation Yrotation
        JOINT LeftToeBase
        {
          OFFSET 12.7242 0 0
          CHANNELS 3 Zrotation Xrotation Yrotation
          End Site
          {
            OFFSET 0 0 0
          }
        }
      }
    }
  }
  JOINT RightUpLeg
  {
    OFFSET -8.2249 1.95398 -2.59336
    CHANNELS 3 Zrotation Xrotation Yrotation
    JOINT RightLeg
    {
      OFFSET 43.5653 0 0
      CHANNELS 3 Zrotation Xrotation Yrotation
      JOINT RightFoot
      {
        OFFSET 40.6238 0 0
        CHANNELS 3 Zrotation Xrotation Yrotation
        JOINT RightToeBase
        {
          OFFSET 12.7242 0 0
          CHANNELS 3 Zrotation Xrotation Yrotation
          End Site
          {
            OFFSET 0 0 0
          }
        }
      }
    }
  }
  JOINT Spine
  {
    OFFSET 0.165834 0.87714 6.61349
    CHANNELS 3 Zrotation Xrotation Yrotation
    JOINT Spine1
    {
      OFFSET 7.38962 1.71661e-005 0
      CHANNELS 3 Zrotation Xrotation Yrotation
      JOINT Spine2
      {
        OFFSET 11.9445 1.14441e-005 0
        CHANNELS 3 Zrotation Xrotation Yrotation
        JOINT Spine3
        {
          OFFSET 14.7254 4.19617e-005 0
          CHANNELS 3 Zrotation Xrotation Yrotation
          JOINT Spine4
          {
            OFFSET 10.9679 0 0
            CHANNELS 3 Zrotation Xrotation Yrotation
            JOINT RightShoulder
            {
              OFFSET 2.46616 -1.6653 3.69651
              CHANNELS 3 Zrotation Xrotation Yrotation
              JOINT RightArm
              {
                OFFSET 13.0012 0 0
                CHANNELS 3 Zrotation Xrotation Yrotation
                JOINT RightForeArm
                {
                  OFFSET 28.7848 1.52588e-005 0
                  CHANNELS 3 Zrotation Xrotation Yrotation
                  JOINT RightHand
                  {
                    OFFSET 26.5688 1.52588e-005 0
                    CHANNELS 3 Zrotation Xrotation Yrotation
                    End Site
                    {
                      OFFSET 0 0 0
                    }
                  }
                }
              }
            }
            JOINT LeftShoulder
            {
              OFFSET 2.38034 -1.29275 -3.75231
              CHANNELS 3 Zrotation Xrotation Yrotation
              JOINT LeftArm
              {
                OFFSET 16.3182 6.10352e-005 0
                CHANNELS 3 Zrotation Xrotation Yrotation
                JOINT LeftForeArm
                {
                  OFFSET 27.0901 0 0
                  CHANNELS 3 Zrotation Xrotation Yrotation
                  JOINT LeftHand
                  {
                    OFFSET 24.5451 1.52588e-005 0
                    CHANNELS 3 Zrotation Xrotation Yrotation
                    End Site
                    {
                      OFFSET 0 0 0
                    }
                  }
                }
              }
            }
            JOINT Neck
            {
              OFFSET 5.0226 -0.0266342 0
              CHANNELS 3 Zrotation Xrotation Yrotation
              JOINT Head
              {
                OFFSET 6.69363 2.86102e-005 0
                CHANNELS 3 Zrotation Xrotation Yrotation
                End Site
                {
                  OFFSET 0 0 0
                }
              }
            }
          }
        }
      }
    }
  }
}
MOTION
Frames:	9
Frame Time:	0.0333333
1.54883 97.027 -15.9037 -95.2533 -89.9957 -95.2715 -171.338 3.15344 90.5066 -10.1036 8.33954 2.37977 63.9851 0.974587 0.487473 28.7808 5.87926e-006 8.43505e-006 168.419 2.86211 91.7437 -10.4172 -11.1884 -2.16516 64.1036 -1.0854 -0.561371 28.7808 1.53539e-005 2.93537e-005 -0.00157744 6.33779 -89.9805 14.1935 0.00751743 3.4183e-006 2.52251 0.0068825 -4.48857e-006 -20.0126 1.89614e-006 5.38062e-007 -3.18055e-015 1.55301e-018 7.76503e-019 100.923 -18.4818 -85.2498 15.1791 44.4085 -35.3661 -3.27193 0.00469016 -4.91075 -5.37983 -0.320005 -0.0162399 -79.0145 -21.4209 94.2494 6.15635 -28.2046 -18.382 4.49265 29.7928 -6.97656 -1.51898 -0.0464426 0.546592 1.74427 0.00274734 0.00739911 -7.40804 -0.00253498 -0.00621331 
1.55234 97.0139 -15.8828 -94.245 -89.9405 -94.2723 -171.281 3.19433 90.5267 -10.2374 8.37651 2.33575 64.0824 0.942835 0.468467 28.7808 5.87926e-006 8.43505e-006 168.424 2.79622 91.7188 -10.3264 -11.1773 -2.16508 64.2944 -0.887515 -0.454231 28.7808 1.53539e-005 2.93537e-005 -0.00367268 6.33766 -89.9539 14.1935 0.00751743 3.4183e-006 2.52251 0.0068825 -4.48857e-006 -20.0126 1.89614e-006 5.38062e-007 -3.36754e-037 1.2424e-017 1.55301e-018 100.865 -18.4422 -85.3279 15.166 44.4152 -35.3475 -3.27193 0.00469016 -4.91075 -5.37983 -0.320005 -0.0162399 -78.9999 -21.3491 94.3675 6.36285 -27.9481 -19.6945 3.03452 29.6422 -4.05745 -1.04376 -0.0473473 -0.607433 1.5998 0.0416019 0.1184 -7.36867 -0.0423201 -0.097727 
1.57349 97.0211 -15.8528 -58.0489 -89.9532 -58.0737 -171.36 3.14069 90.4793 -10.1158 8.34814 2.40603 64.0466 0.983363 0.493289 28.7808 5.87926e-006 8.43505e-006 168.41 2.84676 91.7195 -10.3931 -11.2271 -2.16491 64.1716 -1.02234 -0.52702 28.7808 1.53539e-005 2.93537e-005 -0.0020462 6.33777 -89.9746 14.1935 0.00751743 2.88962e-005 2.52254 0.0068825 2.19169e-005 -20.0126 -1.95421e-005 2.11817e-005 3.08847e-005 -2.09089e-005 2.05909e-005 100.869 -18.3672 -85.2839 15.1613 44.4255 -35.3505 -3.27193 0.00469016 -4.91075 -5.37983 -0.320005 -0.0162399 -78.9765 -21.3141 94.447 6.59146 -28.1074 -19.8104 3.09457 30.1221 -4.1598 -1.45922 -0.0610088 -0.665914 1.54938 0.0036063 0.109233 -7.41786 -0.0668509 -0.0683385 
1.57487 97.0178 -15.8107 -75.5298 -89.967 -75.5354 -171.328 3.09107 90.5096 -10.0967 8.35727 2.38458 64.0979 1.02771 0.519762 28.7808 5.87926e-006 8.43505e-006 168.402 2.80146 91.7269 -10.3977 -11.2241 -2.15251 64.2003 -1.05899 -0.547799 28.7808 1.53539e-005 2.93537e-005 -0.00144385 6.33779 -89.9794 14.1928 0.00751743 -0.000512465 2.52188 0.0068825 -0.000527144 -20.0133 0.00041978 -0.000398406 -0.000619359 0.000426102 -0.00040005 100.827 -18.4219 -85.2943 15.0743 44.5793 -35.3489 -3.27193 0.00469016 -4.91075 -5.37983 -0.320005 -0.0162399 -78.9877 -21.0656 94.4725 6.8011 -28.2164 -19.8398 3.11539 30.6329 -4.18136 -1.39344 -0.0615514 -0.977241 1.38311 -0.0677735 -0.0169629 -7.35156 -0.0701236 -0.0148752 
1.57227 97.0189 -15.7782 8.40061 -89.9285 8.40452 -171.343 3.1189 90.5091 -10.0586 8.35438 2.38799 64.1045 1.02594 0.51973 28.7808 5.87926e-006 8.43505e-006 168.365 2.85663 91.7239 -10.4215 -11.2281 -2.09251 64.1555 -1.18916 -0.620104 28.7808 1.53539e-005 2.93537e-005 0.00459125 6.33782 -89.9956 14.1761 0.00721955 -0.0147853 2.50512 0.00656617 -0.0151098 -20.03 0.011654 -0.0118335 -0.0173901 0.0116559 -0.0118392 100.97 -18.2367 -85.1215 15.0892 44.5578 -35.3599 -3.27193 0.00469016 -4.91075 -5.37983 -0.320005 -0.0162399 -78.9099 -20.9214 94.4845 6.99773 -28.3403 -19.9516 3.12122 30.7762 -4.18733 -0.969685 -0.0507448 -1.12232 1.48745 -0.100945 0.126879 -7.39924 -0.124115 -0.133834 
1.56331 97.022 -15.7183 18.5352 -89.8965 18.545 -171.322 3.12482 90.5236 -10.0833 8.40879 2.39936 64.1219 0.956528 0.479591 28.7808 5.87926e-006 8.43505e-006 168.419 2.80616 91.753 -10.3563 -11.1516 -2.1369 64.1894 -1.09017 -0.565625 28.7808 1.53539e-005 2.93537e-005 0.0015226 6.33781 -89.9862 14.1754 0.0017737 -0.0210289 2.5045 0.00084596 -0.021096 -20.0307 0.00801525 -0.0195226 -0.0180113 0.00800894 -0.0195299 101.059 -18.1949 -84.9159 15.1504 44.5008 -35.5276 -3.27193 0.00469016 -4.91075 -5.37983 -0.320005 -0.0162399 -78.8574 -20.4919 94.564 7.01239 -28.3479 -19.9537 3.13806 31.1791 -4.20486 -0.942627 -0.0494352 -1.07958 1.40996 -0.133938 0.097952 -7.36273 -0.147364 -0.0671869 
1.57241 97.0151 -15.6688 34.1443 -89.8394 34.1342 -171.33 3.11821 90.503 -10.0606 8.46724 2.39507 64.1494 0.99211 0.500847 28.7808 5.87926e-006 8.43505e-006 168.331 2.80696 91.6887 -10.3444 -11.1509 -2.05401 64.2677 -1.07657 -0.558584 28.7808 1.53539e-005 2.93537e-005 -0.00538842 6.33782 -89.9927 14.183 -0.0131414 -0.0202802 2.51206 -0.0140352 -0.0196942 -20.0231 -0.00645489 -0.0232982 -0.0104497 -0.00644631 -0.023295 101.108 -18.2178 -84.7922 15.1531 44.5375 -35.6587 -3.27193 0.00469016 -4.91075 -5.37983 -0.320005 -0.0162399 -78.8299 -20.1814 94.6094 7.08123 -28.3589 -19.8662 3.12516 30.8756 -4.19126 -1.134 -0.0600477 -1.54781 1.29477 -0.144601 0.231044 -7.35506 -0.169491 -0.14896 
1.57627 97.0041 -15.6061 21.8888 -89.7586 21.8676 -171.343 3.15054 90.4814 -10.0217 8.36833 2.3432 64.19 1.18433 0.610562 28.7808 5.87926e-006 8.43505e-006 168.401 2.88797 91.7247 -10.4045 -11.1061 -2.12913 64.3124 -1.05418 -0.546427 28.7808 1.53539e-005 2.93537e-005 -0.00702313 6.33794 -89.9963 14.1987 -0.0173286 -0.0218913 2.52772 -0.0182745 -0.021116 -20.0074 -0.0099419 -0.026095 0.00520593 -0.00994186 -0.0260953 101.177 -18.2072 -84.6353 15.2221 44.4541 -35.7831 -3.27193 0.00469016 -4.91075 -5.37983 -0.320005 -0.0162399 -78.7714 -19.9328 94.7166 7.08892 -28.3639 -19.8709 3.11653 30.6704 -4.18215 -1.25522 -0.0642662 -1.69454 1.28928 -0.171489 0.231337 -7.49664 -0.20238 -0.00842138 
1.5775 97.0065 -15.5424 21.8434 -89.7419 21.8172 -171.336 3.14852 90.4797 -10.0692 8.48477 2.38427 64.1902 1.10082 0.561965 28.7808 5.87926e-006 8.43505e-006 168.403 2.83277 91.7147 -10.3445 -11.0952 -2.12872 64.3216 -1.08113 -0.562737 28.7808 1.53539e-005 2.93537e-005 -0.0100573 6.34091 -89.9874 14.1974 -0.0236434 -0.031368 2.52646 -0.025006 -0.0303108 -20.0087 -0.0143117 -0.0370331 0.0039572 -0.0143119 -0.0370343 101.204 -18.2025 -84.5641 15.2322 44.4418 -35.8014 -3.27193 0.00469016 -4.91075 -5.37983 -0.320005 -0.0162399 -78.7279 -19.9153 94.8182 7.22989 -28.4412 -19.9058 3.12085 30.7817 -4.18684 -1.41144 -0.0664757 -1.84394 1.3186 -0.174788 0.441996 -7.62271 -0.230078 -0.167976 
